<svg xmlns="http://www.w3.org/2000/svg" width="1238" height="1801" viewBox="0 0 1238 1801">
<rect x="0" y="0" width="100%" height="100%" fill="#FFFFFF"/>
<path d="M 222.0,790.5 L 250.0,790.5 L 250.0,63.0 L 278.0,63.0" fill="none" stroke="#94A3B8" stroke-width="1.4"/>
<path d="M 222.0,790.5 L 250.0,790.5 L 250.0,387.0 L 278.0,387.0" fill="none" stroke="#94A3B8" stroke-width="1.4"/>
<path d="M 222.0,790.5 L 250.0,790.5 L 250.0,927.0 L 278.0,927.0" fill="none" stroke="#94A3B8" stroke-width="1.4"/>
<path d="M 222.0,790.5 L 250.0,790.5 L 250.0,1215.0 L 278.0,1215.0" fill="none" stroke="#94A3B8" stroke-width="1.4"/>
<path d="M 222.0,790.5 L 250.0,790.5 L 250.0,1287.0 L 278.0,1287.0" fill="none" stroke="#94A3B8" stroke-width="1.4"/>
<path d="M 222.0,790.5 L 250.0,790.5 L 250.0,1366.5 L 278.0,1366.5" fill="none" stroke="#94A3B8" stroke-width="1.4"/>
<path d="M 222.0,790.5 L 250.0,790.5 L 250.0,1446.0 L 278.0,1446.0" fill="none" stroke="#94A3B8" stroke-width="1.4"/>
<path d="M 222.0,790.5 L 250.0,790.5 L 250.0,1518.0 L 278.0,1518.0" fill="none" stroke="#94A3B8" stroke-width="1.4"/>
<path d="M 468.0,63.0 L 496.0,63.0 L 496.0,63.0 L 524.0,63.0" fill="none" stroke="#94A3B8" stroke-width="1.4"/>
<path d="M 714.0,63.0 L 742.0,63.0 L 742.0,63.0 L 770.0,63.0" fill="none" stroke="#94A3B8" stroke-width="1.4"/>
<path d="M 960.0,63.0 L 988.0,63.0 L 988.0,63.0 L 1016.0,63.0" fill="none" stroke="#94A3B8" stroke-width="1.4"/>
<path d="M 468.0,387.0 L 496.0,387.0 L 496.0,387.0 L 524.0,387.0" fill="none" stroke="#94A3B8" stroke-width="1.4"/>
<path d="M 714.0,387.0 L 742.0,387.0 L 742.0,135.0 L 770.0,135.0" fill="none" stroke="#94A3B8" stroke-width="1.4"/>
<path d="M 714.0,387.0 L 742.0,387.0 L 742.0,207.0 L 770.0,207.0" fill="none" stroke="#94A3B8" stroke-width="1.4"/>
<path d="M 714.0,387.0 L 742.0,387.0 L 742.0,279.0 L 770.0,279.0" fill="none" stroke="#94A3B8" stroke-width="1.4"/>
<path d="M 714.0,387.0 L 742.0,387.0 L 742.0,351.0 L 770.0,351.0" fill="none" stroke="#94A3B8" stroke-width="1.4"/>
<path d="M 714.0,387.0 L 742.0,387.0 L 742.0,423.0 L 770.0,423.0" fill="none" stroke="#94A3B8" stroke-width="1.4"/>
<path d="M 714.0,387.0 L 742.0,387.0 L 742.0,495.0 L 770.0,495.0" fill="none" stroke="#94A3B8" stroke-width="1.4"/>
<path d="M 714.0,387.0 L 742.0,387.0 L 742.0,567.0 L 770.0,567.0" fill="none" stroke="#94A3B8" stroke-width="1.4"/>
<path d="M 714.0,387.0 L 742.0,387.0 L 742.0,639.0 L 770.0,639.0" fill="none" stroke="#94A3B8" stroke-width="1.4"/>
<path d="M 468.0,927.0 L 496.0,927.0 L 496.0,927.0 L 524.0,927.0" fill="none" stroke="#94A3B8" stroke-width="1.4"/>
<path d="M 714.0,927.0 L 742.0,927.0 L 742.0,711.0 L 770.0,711.0" fill="none" stroke="#94A3B8" stroke-width="1.4"/>
<path d="M 714.0,927.0 L 742.0,927.0 L 742.0,783.0 L 770.0,783.0" fill="none" stroke="#94A3B8" stroke-width="1.4"/>
<path d="M 714.0,927.0 L 742.0,927.0 L 742.0,855.0 L 770.0,855.0" fill="none" stroke="#94A3B8" stroke-width="1.4"/>
<path d="M 714.0,927.0 L 742.0,927.0 L 742.0,927.0 L 770.0,927.0" fill="none" stroke="#94A3B8" stroke-width="1.4"/>
<path d="M 714.0,927.0 L 742.0,927.0 L 742.0,999.0 L 770.0,999.0" fill="none" stroke="#94A3B8" stroke-width="1.4"/>
<path d="M 714.0,927.0 L 742.0,927.0 L 742.0,1071.0 L 770.0,1071.0" fill="none" stroke="#94A3B8" stroke-width="1.4"/>
<path d="M 714.0,927.0 L 742.0,927.0 L 742.0,1143.0 L 770.0,1143.0" fill="none" stroke="#94A3B8" stroke-width="1.4"/>
<rect x="32.0" y="759.5" width="190" height="62.0" rx="8" fill="#E2E8F0" stroke="#94A3B8" stroke-width="1.2"/>
<text x="44.0" y="781.5" font-size="14" font-weight="700" fill="#111827" font-family="Arial, DejaVu Sans, sans-serif">Главная / каталог</text>
<text x="44.0" y="809.5" font-size="13" fill="#475569" font-family="Arial, DejaVu Sans, sans-serif">/</text>
<rect x="278.0" y="32.0" width="190" height="62.0" rx="8" fill="#F8FAFC" stroke="#CBD5E1" stroke-width="1.2"/>
<text x="290.0" y="54.0" font-size="14" font-weight="700" fill="#111827" font-family="Arial, DejaVu Sans, sans-serif">Карточка объявления</text>
<text x="290.0" y="82.0" font-size="13" fill="#475569" font-family="Arial, DejaVu Sans, sans-serif">/products/:id</text>
<rect x="524.0" y="32.0" width="190" height="62.0" rx="8" fill="#F8FAFC" stroke="#CBD5E1" stroke-width="1.2"/>
<text x="536.0" y="54.0" font-size="14" font-weight="700" fill="#111827" font-family="Arial, DejaVu Sans, sans-serif">Корзина</text>
<text x="536.0" y="82.0" font-size="13" fill="#475569" font-family="Arial, DejaVu Sans, sans-serif">/cart</text>
<rect x="770.0" y="32.0" width="190" height="62.0" rx="8" fill="#F8FAFC" stroke="#CBD5E1" stroke-width="1.2"/>
<text x="782.0" y="54.0" font-size="14" font-weight="700" fill="#111827" font-family="Arial, DejaVu Sans, sans-serif">Оформление заказа</text>
<text x="782.0" y="82.0" font-size="13" fill="#475569" font-family="Arial, DejaVu Sans, sans-serif">/checkout</text>
<rect x="1016.0" y="32.0" width="190" height="62.0" rx="8" fill="#F8FAFC" stroke="#CBD5E1" stroke-width="1.2"/>
<text x="1028.0" y="54.0" font-size="14" font-weight="700" fill="#111827" font-family="Arial, DejaVu Sans, sans-serif">Заказ оформлен</text>
<text x="1028.0" y="82.0" font-size="13" fill="#475569" font-family="Arial, DejaVu Sans, sans-serif">/order-complete</text>
<rect x="278.0" y="348.5" width="190" height="77.0" rx="8" fill="#F8FAFC" stroke="#CBD5E1" stroke-width="1.2"/>
<text x="290.0" y="370.5" font-size="14" font-weight="700" fill="#111827" font-family="Arial, DejaVu Sans, sans-serif">Авторизация и</text>
<text x="290.0" y="387.5" font-size="14" font-weight="700" fill="#111827" font-family="Arial, DejaVu Sans, sans-serif">регистрация</text>
<text x="290.0" y="413.5" font-size="13" fill="#475569" font-family="Arial, DejaVu Sans, sans-serif">/auth</text>
<rect x="524.0" y="356.0" width="190" height="62.0" rx="8" fill="#F8FAFC" stroke="#CBD5E1" stroke-width="1.2"/>
<text x="536.0" y="378.0" font-size="14" font-weight="700" fill="#111827" font-family="Arial, DejaVu Sans, sans-serif">Личный кабинет</text>
<text x="536.0" y="406.0" font-size="13" fill="#475569" font-family="Arial, DejaVu Sans, sans-serif">/profile</text>
<rect x="770.0" y="104.0" width="190" height="62.0" rx="8" fill="#F8FAFC" stroke="#CBD5E1" stroke-width="1.2"/>
<text x="782.0" y="126.0" font-size="14" font-weight="700" fill="#111827" font-family="Arial, DejaVu Sans, sans-serif">Профиль</text>
<text x="782.0" y="154.0" font-size="13" fill="#475569" font-family="Arial, DejaVu Sans, sans-serif">/profile</text>
<rect x="770.0" y="176.0" width="190" height="62.0" rx="8" fill="#F8FAFC" stroke="#CBD5E1" stroke-width="1.2"/>
<text x="782.0" y="198.0" font-size="14" font-weight="700" fill="#111827" font-family="Arial, DejaVu Sans, sans-serif">Адреса</text>
<text x="782.0" y="226.0" font-size="13" fill="#475569" font-family="Arial, DejaVu Sans, sans-serif">/profile/addresses</text>
<rect x="770.0" y="248.0" width="190" height="62.0" rx="8" fill="#F8FAFC" stroke="#CBD5E1" stroke-width="1.2"/>
<text x="782.0" y="270.0" font-size="14" font-weight="700" fill="#111827" font-family="Arial, DejaVu Sans, sans-serif">Заказы</text>
<text x="782.0" y="298.0" font-size="13" fill="#475569" font-family="Arial, DejaVu Sans, sans-serif">/profile/orders</text>
<rect x="770.0" y="320.0" width="190" height="62.0" rx="8" fill="#F8FAFC" stroke="#CBD5E1" stroke-width="1.2"/>
<text x="782.0" y="342.0" font-size="14" font-weight="700" fill="#111827" font-family="Arial, DejaVu Sans, sans-serif">Избранное</text>
<text x="782.0" y="370.0" font-size="13" fill="#475569" font-family="Arial, DejaVu Sans, sans-serif">/profile/wishlist</text>
<rect x="770.0" y="392.0" width="190" height="62.0" rx="8" fill="#F8FAFC" stroke="#CBD5E1" stroke-width="1.2"/>
<text x="782.0" y="414.0" font-size="14" font-weight="700" fill="#111827" font-family="Arial, DejaVu Sans, sans-serif">Партнерство (заявка)</text>
<text x="782.0" y="442.0" font-size="13" fill="#475569" font-family="Arial, DejaVu Sans, sans-serif">/profile/partnership</text>
<rect x="770.0" y="464.0" width="190" height="62.0" rx="8" fill="#F8FAFC" stroke="#CBD5E1" stroke-width="1.2"/>
<text x="782.0" y="486.0" font-size="14" font-weight="700" fill="#111827" font-family="Arial, DejaVu Sans, sans-serif">Объявления партнера</text>
<text x="782.0" y="514.0" font-size="13" fill="#475569" font-family="Arial, DejaVu Sans, sans-serif">/profile/partner-listings</text>
<rect x="770.0" y="536.0" width="190" height="62.0" rx="8" fill="#F8FAFC" stroke="#CBD5E1" stroke-width="1.2"/>
<text x="782.0" y="558.0" font-size="14" font-weight="700" fill="#111827" font-family="Arial, DejaVu Sans, sans-serif">Вопросы покупателей</text>
<text x="782.0" y="586.0" font-size="13" fill="#475569" font-family="Arial, DejaVu Sans, sans-serif">/profile/partner-questions</text>
<rect x="770.0" y="608.0" width="190" height="62.0" rx="8" fill="#F8FAFC" stroke="#CBD5E1" stroke-width="1.2"/>
<text x="782.0" y="630.0" font-size="14" font-weight="700" fill="#111827" font-family="Arial, DejaVu Sans, sans-serif">Заказы партнера</text>
<text x="782.0" y="658.0" font-size="13" fill="#475569" font-family="Arial, DejaVu Sans, sans-serif">/profile/partner-orders</text>
<rect x="278.0" y="896.0" width="190" height="62.0" rx="8" fill="#F8FAFC" stroke="#CBD5E1" stroke-width="1.2"/>
<text x="290.0" y="918.0" font-size="14" font-weight="700" fill="#111827" font-family="Arial, DejaVu Sans, sans-serif">Вход администратора</text>
<text x="290.0" y="946.0" font-size="13" fill="#475569" font-family="Arial, DejaVu Sans, sans-serif">/admin/login</text>
<rect x="524.0" y="896.0" width="190" height="62.0" rx="8" fill="#F8FAFC" stroke="#CBD5E1" stroke-width="1.2"/>
<text x="536.0" y="918.0" font-size="14" font-weight="700" fill="#111827" font-family="Arial, DejaVu Sans, sans-serif">Админ-панель</text>
<text x="536.0" y="946.0" font-size="13" fill="#475569" font-family="Arial, DejaVu Sans, sans-serif">/admin</text>
<rect x="770.0" y="680.0" width="190" height="62.0" rx="8" fill="#F8FAFC" stroke="#CBD5E1" stroke-width="1.2"/>
<text x="782.0" y="702.0" font-size="14" font-weight="700" fill="#111827" font-family="Arial, DejaVu Sans, sans-serif">Сделки</text>
<text x="782.0" y="730.0" font-size="13" fill="#475569" font-family="Arial, DejaVu Sans, sans-serif">/admin/transactions</text>
<rect x="770.0" y="752.0" width="190" height="62.0" rx="8" fill="#F8FAFC" stroke="#CBD5E1" stroke-width="1.2"/>
<text x="782.0" y="774.0" font-size="14" font-weight="700" fill="#111827" font-family="Arial, DejaVu Sans, sans-serif">Жалобы</text>
<text x="782.0" y="802.0" font-size="13" fill="#475569" font-family="Arial, DejaVu Sans, sans-serif">/admin/complaints</text>
<rect x="770.0" y="824.0" width="190" height="62.0" rx="8" fill="#F8FAFC" stroke="#CBD5E1" stroke-width="1.2"/>
<text x="782.0" y="846.0" font-size="14" font-weight="700" fill="#111827" font-family="Arial, DejaVu Sans, sans-serif">Продавцы / KYC</text>
<text x="782.0" y="874.0" font-size="13" fill="#475569" font-family="Arial, DejaVu Sans, sans-serif">/admin/sellers</text>
<rect x="770.0" y="896.0" width="190" height="62.0" rx="8" fill="#F8FAFC" stroke="#CBD5E1" stroke-width="1.2"/>
<text x="782.0" y="918.0" font-size="14" font-weight="700" fill="#111827" font-family="Arial, DejaVu Sans, sans-serif">Объявления</text>
<text x="782.0" y="946.0" font-size="13" fill="#475569" font-family="Arial, DejaVu Sans, sans-serif">/admin/listings</text>
<rect x="770.0" y="968.0" width="190" height="62.0" rx="8" fill="#F8FAFC" stroke="#CBD5E1" stroke-width="1.2"/>
<text x="782.0" y="990.0" font-size="14" font-weight="700" fill="#111827" font-family="Arial, DejaVu Sans, sans-serif">Пользователи</text>
<text x="782.0" y="1018.0" font-size="13" fill="#475569" font-family="Arial, DejaVu Sans, sans-serif">/admin/users</text>
<rect x="770.0" y="1040.0" width="190" height="62.0" rx="8" fill="#F8FAFC" stroke="#CBD5E1" stroke-width="1.2"/>
<text x="782.0" y="1062.0" font-size="14" font-weight="700" fill="#111827" font-family="Arial, DejaVu Sans, sans-serif">Комиссии</text>
<text x="782.0" y="1090.0" font-size="13" fill="#475569" font-family="Arial, DejaVu Sans, sans-serif">/admin/commissions</text>
<rect x="770.0" y="1112.0" width="190" height="62.0" rx="8" fill="#F8FAFC" stroke="#CBD5E1" stroke-width="1.2"/>
<text x="782.0" y="1134.0" font-size="14" font-weight="700" fill="#111827" font-family="Arial, DejaVu Sans, sans-serif">Аудит</text>
<text x="782.0" y="1162.0" font-size="13" fill="#475569" font-family="Arial, DejaVu Sans, sans-serif">/admin/audit</text>
<rect x="278.0" y="1184.0" width="190" height="62.0" rx="8" fill="#F8FAFC" stroke="#CBD5E1" stroke-width="1.2"/>
<text x="290.0" y="1206.0" font-size="14" font-weight="700" fill="#111827" font-family="Arial, DejaVu Sans, sans-serif">О компании</text>
<text x="290.0" y="1234.0" font-size="13" fill="#475569" font-family="Arial, DejaVu Sans, sans-serif">/about</text>
<rect x="278.0" y="1256.0" width="190" height="62.0" rx="8" fill="#F8FAFC" stroke="#CBD5E1" stroke-width="1.2"/>
<text x="290.0" y="1278.0" font-size="14" font-weight="700" fill="#111827" font-family="Arial, DejaVu Sans, sans-serif">FAQ</text>
<text x="290.0" y="1306.0" font-size="13" fill="#475569" font-family="Arial, DejaVu Sans, sans-serif">/faq</text>
<rect x="278.0" y="1328.0" width="190" height="77.0" rx="8" fill="#F8FAFC" stroke="#CBD5E1" stroke-width="1.2"/>
<text x="290.0" y="1350.0" font-size="14" font-weight="700" fill="#111827" font-family="Arial, DejaVu Sans, sans-serif">Политика</text>
<text x="290.0" y="1367.0" font-size="14" font-weight="700" fill="#111827" font-family="Arial, DejaVu Sans, sans-serif">конфиденциальности</text>
<text x="290.0" y="1393.0" font-size="13" fill="#475569" font-family="Arial, DejaVu Sans, sans-serif">/privacy</text>
<rect x="278.0" y="1415.0" width="190" height="62.0" rx="8" fill="#F8FAFC" stroke="#CBD5E1" stroke-width="1.2"/>
<text x="290.0" y="1437.0" font-size="14" font-weight="700" fill="#111827" font-family="Arial, DejaVu Sans, sans-serif">Условия использования</text>
<text x="290.0" y="1465.0" font-size="13" fill="#475569" font-family="Arial, DejaVu Sans, sans-serif">/terms</text>
<rect x="278.0" y="1487.0" width="190" height="62.0" rx="8" fill="#F8FAFC" stroke="#CBD5E1" stroke-width="1.2"/>
<text x="290.0" y="1509.0" font-size="14" font-weight="700" fill="#111827" font-family="Arial, DejaVu Sans, sans-serif">Партнерство (инфо)</text>
<text x="290.0" y="1537.0" font-size="13" fill="#475569" font-family="Arial, DejaVu Sans, sans-serif">/partnership</text>
</svg>